<!-- 💀no i am not modifying this svg element nothing to see here or so you're told -->

<!-- had this idea to make it do a color change based on the theme (considering changing this to a react web app)-->


<svg viewBox="0 0 640 400" data-background-color="transparent" preserveAspectRatio="xMidYMid meet" height="100" width="100" xmlns="http://www.w3.org/2000/svg" xmlns:xlink="http://www.w3.org/1999/xlink">
    <rect width="640" height="400" x="0" y="0" opacity="1" fill="transparent" data-fill-palette-color="background" id="background">
    </rect>
    <g id="tight-bounds" transform="matrix(1,0,0,1,160,20)">
        <svg viewBox="0 0 320 360" height="360" width="320">
            <g><svg></svg></g>
            <g><svg viewBox="0 0 320 360" height="360" width="320"><g><path xmlns="http://www.w3.org/2000/svg" d="M160 340c88.258 0 160-71.742 160-160 0-88.258-71.742-160-160-160-88.258 0-160 71.742-160 160 0 88.258 71.742 160 160 160zM165.161 329.368v-10.323c72.671-2.684 131.2-61.213 133.884-133.884h10.323c-2.684 78.452-65.755 141.523-144.207 144.207zM165.161 30.632c78.452 2.684 141.523 65.755 144.207 144.207h-10.323c-2.684-72.671-61.213-131.2-133.884-133.884zM289.032 180c0 71.123-57.91 129.032-129.032 129.032-71.123 0-129.032-57.91-129.032-129.032 0-71.123 57.91-129.032 129.032-129.032 71.123 0 129.032 57.91 129.032 129.032zM154.839 30.632v10.323c-72.671 2.684-131.2 61.213-133.884 133.884h-10.323c2.684-78.452 65.755-141.523 144.207-144.207zM20.955 185.161c2.684 72.671 61.213 131.2 133.884 133.884v10.323c-78.452-2.684-141.523-65.755-144.207-144.207z" fill="#fd1f1f" fill-rule="nonzero" stroke="none" stroke-width="1" stroke-linecap="butt" stroke-linejoin="miter" stroke-miterlimit="10" stroke-dasharray="" stroke-dashoffset="0" font-family="none" font-weight="none" font-size="none" text-anchor="none" style="mix-blend-mode: normal" data-fill-palette-color="tertiary"></path></g><g transform="matrix(1,0,0,1,64,130.92183726749744)"><svg viewBox="0 0 192 98.15632546500511" height="98.15632546500511" width="192"><g><svg viewBox="0 0 192 98.15632546500511" height="98.15632546500511" width="192"><g><svg viewBox="0 0 192 98.15632546500511" height="98.15632546500511" width="192"><g transform="matrix(1,0,0,1,0,59.093367836689566)"><svg viewBox="0 0 192 39.062957628315544" height="39.062957628315544" width="192"><g id="textblocktransform"><svg viewBox="0 0 192 39.062957628315544" height="39.062957628315544" width="192" id="textblock"><g><svg viewBox="0 0 192 21.638626520093016" height="21.638626520093016" width="192"><g transform="matrix(1,0,0,1,0,0)"><svg width="192" viewBox="1.0499999523162842 -45.150001525878906 404.126142578125 45.55000305175781" height="21.638626520093016" data-palette-color="#ff4136"><g transform="matrix(1,0,0,1,0,0)"><g><svg width="19.577421875000002" viewBox="1.7799999713897705 -36.36000061035156 74.20999908447266 36.36000061035156" height="9.592" data-palette-color="#ff4136" id="scriptelement" x="385.5987005085184" y="-45.150001525878906"><path d="M12.91-30.02L1.78-30.02 1.78-36.36 31.64-36.36 31.64-30.02 20.51-30.02 20.51 0 12.91 0 12.91-30.02ZM36.57 0L36.57-36.36 46.06-36.36 56.07-11.93 56.5-11.93 66.51-36.36 75.99-36.36 75.99 0 68.53 0 68.53-23.67 68.23-23.67 58.82-0.18 53.74-0.18 44.33-23.76 44.03-23.76 44.03 0 36.57 0Z" opacity="1" transform="matrix(1,0,0,1,0,0)" fill="#ff4136" class="undefined-123" data-fill-palette-color="primary" id="p-123"></path></svg></g></g><path d="M12.1 0.4Q6.25 0.4 3.65-2.5 1.05-5.4 1.05-11.85L1.05-11.85 1.05-16.05 9.5-16.05 9.5-10.7Q9.5-7.5 11.55-7.5L11.55-7.5Q12.7-7.5 13.15-8.18 13.6-8.85 13.6-10.45L13.6-10.45Q13.6-12.55 13.1-13.93 12.6-15.3 11.83-16.23 11.05-17.15 9.05-19.1L9.05-19.1 5.35-22.8Q1.05-27 1.05-32.1L1.05-32.1Q1.05-37.6 3.58-40.48 6.1-43.35 10.95-43.35L10.95-43.35Q16.75-43.35 19.3-40.28 21.85-37.2 21.85-30.65L21.85-30.65 13.1-30.65 13.05-33.6Q13.05-34.45 12.58-34.95 12.1-35.45 11.25-35.45L11.25-35.45Q10.25-35.45 9.75-34.9 9.25-34.35 9.25-33.4L9.25-33.4Q9.25-31.3 11.65-29.05L11.65-29.05 16.65-24.25Q18.4-22.55 19.55-21.03 20.7-19.5 21.4-17.43 22.1-15.35 22.1-12.5L22.1-12.5Q22.1-6.15 19.78-2.88 17.45 0.4 12.1 0.4L12.1 0.4ZM35.15 0.4Q29.3 0.4 26.7-2.5 24.1-5.4 24.1-11.85L24.1-11.85 24.1-16.05 32.55-16.05 32.55-10.7Q32.55-7.5 34.6-7.5L34.6-7.5Q35.75-7.5 36.2-8.18 36.65-8.85 36.65-10.45L36.65-10.45Q36.65-12.55 36.15-13.93 35.65-15.3 34.87-16.23 34.1-17.15 32.1-19.1L32.1-19.1 28.4-22.8Q24.1-27 24.1-32.1L24.1-32.1Q24.1-37.6 26.62-40.48 29.15-43.35 34-43.35L34-43.35Q39.8-43.35 42.35-40.28 44.9-37.2 44.9-30.65L44.9-30.65 36.15-30.65 36.1-33.6Q36.1-34.45 35.62-34.95 35.15-35.45 34.3-35.45L34.3-35.45Q33.3-35.45 32.8-34.9 32.3-34.35 32.3-33.4L32.3-33.4Q32.3-31.3 34.7-29.05L34.7-29.05 39.7-24.25Q41.45-22.55 42.6-21.03 43.75-19.5 44.45-17.43 45.15-15.35 45.15-12.5L45.15-12.5Q45.15-6.15 42.82-2.88 40.5 0.4 35.15 0.4L35.15 0.4ZM65.75 0L47.99 0 47.99-42.95 65.19-42.95 65.19-34.65 56.74-34.65 56.74-26.3 64.84-26.3 64.84-18.2 56.74-18.2 56.74-8.35 65.75-8.35 65.75 0ZM80.74-12.45L68.14-12.45 68.14-18.1 80.74-18.1 80.74-12.45ZM94.09 0.4Q88.79 0.4 86.21-2.6 83.64-5.6 83.64-11.5L83.64-11.5 83.64-42.95 91.99-42.95 91.99-11.85Q91.99-9.8 92.39-8.65 92.79-7.5 94.09-7.5L94.09-7.5Q95.39-7.5 95.79-8.63 96.19-9.75 96.19-11.85L96.19-11.85 96.19-42.95 104.54-42.95 104.54-11.5Q104.54-5.6 101.97-2.6 99.39 0.4 94.09 0.4L94.09 0.4ZM107.69 0L107.69-36.6 116.44-36.6 116.44-31.95Q116.99-34.2 118.34-35.6 119.69-37 121.94-37L121.94-37Q125.64-37 127.41-34.73 129.19-32.45 129.19-28.25L129.19-28.25 129.19 0 120.59 0 120.59-27.35Q120.59-28.55 120.11-29.4 119.64-30.25 118.64-30.25L118.64-30.25Q117.29-30.25 116.86-29.03 116.44-27.8 116.44-25.75L116.44-25.75 116.44 0 107.69 0ZM141.33-39.05L132.58-39.05 132.58-45.15 141.33-45.15 141.33-39.05ZM141.33 0L132.58 0 132.58-36.6 141.33-36.6 141.33 0ZM152.33 0.4Q148.88 0.4 147.58-1.05 146.28-2.5 146.28-5.7L146.28-5.7 146.28-28.55 143.83-28.55 143.83-35.2 146.28-35.2 146.28-42.95 154.78-42.95 154.78-35.2 157.28-35.2 157.28-28.55 154.78-28.55 154.78-8Q154.78-7.05 154.93-6.6 155.08-6.15 155.73-6.15L155.73-6.15Q156.23-6.15 156.68-6.2 157.13-6.25 157.28-6.25L157.28-6.25 157.28-0.25Q156.53-0.05 155.11 0.18 153.68 0.4 152.33 0.4L152.33 0.4ZM170.18 0.4Q165.48 0.4 162.66-2.55 159.83-5.5 159.83-10.65L159.83-10.65 159.83-30.45Q159.83-36.85 162.38-40.1 164.93-43.35 170.38-43.35L170.38-43.35Q175.13-43.35 178.03-40.75 180.93-38.15 180.93-33.25L180.93-33.25 180.93-25.85 172.38-25.85 172.38-32.2Q172.38-34.05 171.93-34.75 171.48-35.45 170.38-35.45L170.38-35.45Q169.23-35.45 168.81-34.65 168.38-33.85 168.38-32.3L168.38-32.3 168.38-10.75Q168.38-9.05 168.88-8.28 169.38-7.5 170.38-7.5L170.38-7.5Q172.38-7.5 172.38-10.75L172.38-10.75 172.38-18.5 181.03-18.5 181.03-10.4Q181.03 0.4 170.18 0.4L170.18 0.4ZM194.38 0.4Q183.43 0.4 183.43-10.95L183.43-10.95 183.43-25.65Q183.43-30.85 186.35-33.93 189.28-37 194.38-37L194.38-37Q199.48-37 202.4-33.93 205.33-30.85 205.33-25.65L205.33-25.65 205.33-10.95Q205.33 0.4 194.38 0.4L194.38 0.4ZM194.38-6.35Q195.43-6.35 195.93-7.1 196.43-7.85 196.43-9.15L196.43-9.15 196.43-27.05Q196.43-30.25 194.38-30.25L194.38-30.25Q192.33-30.25 192.33-27.05L192.33-27.05 192.33-9.15Q192.33-7.85 192.83-7.1 193.33-6.35 194.38-6.35L194.38-6.35ZM208.58 0L208.58-36.6 217.33-36.6 217.33-31.95Q217.88-34.2 219.23-35.6 220.58-37 222.83-37L222.83-37Q226.53-37 228.3-34.73 230.08-32.45 230.08-28.25L230.08-28.25 230.08 0 221.48 0 221.48-27.35Q221.48-28.55 221-29.4 220.53-30.25 219.53-30.25L219.53-30.25Q218.18-30.25 217.75-29.03 217.33-27.8 217.33-25.75L217.33-25.75 217.33 0 208.58 0ZM248.32 0L238.17 0 232.32-36.6 241.07-36.6 242.87-18.1 243.17-12.15 243.52-18.15 245.52-36.6 254.27-36.6 248.32 0ZM266.82 0.4Q261.17 0.4 258.72-2.7 256.27-5.8 256.27-11.95L256.27-11.95 256.27-26.65Q256.27-31.7 259.17-34.35 262.07-37 267.27-37L267.27-37Q277.82-37 277.82-26.65L277.82-26.65 277.82-24Q277.82-20 277.72-17.5L277.72-17.5 265.02-17.5 265.02-10.4Q265.02-8.5 265.42-7.43 265.82-6.35 267.12-6.35L267.12-6.35Q268.12-6.35 268.55-6.95 268.97-7.55 269.05-8.33 269.12-9.1 269.12-10.6L269.12-10.6 269.12-14.15 277.82-14.15 277.82-12.05Q277.82-5.65 275.35-2.63 272.87 0.4 266.82 0.4L266.82 0.4ZM264.97-21.85L269.12-21.85 269.12-26.55Q269.12-30.5 267.17-30.5L267.17-30.5Q264.97-30.5 264.97-26.55L264.97-26.55 264.97-21.85ZM280.97 0L280.97-36.6 289.72-36.6 289.72-32.55Q290.37-34.7 291.99-35.88 293.62-37.05 296.02-37.05L296.02-37.05 296.02-29.75Q294.17-29.75 291.94-29.23 289.72-28.7 289.72-28L289.72-28 289.72 0 280.97 0ZM305.72 0.4Q302.27 0.4 300.97-1.05 299.67-2.5 299.67-5.7L299.67-5.7 299.67-28.55 297.22-28.55 297.22-35.2 299.67-35.2 299.67-42.95 308.17-42.95 308.17-35.2 310.67-35.2 310.67-28.55 308.17-28.55 308.17-8Q308.17-7.05 308.31-6.6 308.47-6.15 309.12-6.15L309.12-6.15Q309.62-6.15 310.06-6.2 310.52-6.25 310.67-6.25L310.67-6.25 310.67-0.25Q309.92-0.05 308.49 0.18 307.06 0.4 305.72 0.4L305.72 0.4ZM313.56 0L313.56-42.95 324.91-42.95Q330.06-42.95 332.26-39.63 334.46-36.3 334.46-29.9L334.46-29.9Q334.46-23.5 332.51-20.25 330.56-17 325.51-17L325.51-17 322.01-17 322.01 0 313.56 0ZM322.01-24.75L322.51-24.75Q324.06-24.75 324.79-25.33 325.51-25.9 325.74-26.98 325.96-28.05 325.96-30.05L325.96-30.05Q325.96-32.75 325.36-33.95 324.76-35.15 322.96-35.15L322.96-35.15 322.01-35.15 322.01-24.75ZM337.01 0L337.01-36.6 345.76-36.6 345.76-32.55Q346.41-34.7 348.04-35.88 349.66-37.05 352.06-37.05L352.06-37.05 352.06-29.75Q350.21-29.75 347.99-29.23 345.76-28.7 345.76-28L345.76-28 345.76 0 337.01 0ZM364.86 0.4Q353.91 0.4 353.91-10.95L353.91-10.95 353.91-25.65Q353.91-30.85 356.83-33.93 359.76-37 364.86-37L364.86-37Q369.96-37 372.88-33.93 375.81-30.85 375.81-25.65L375.81-25.65 375.81-10.95Q375.81 0.4 364.86 0.4L364.86 0.4ZM364.86-6.35Q365.91-6.35 366.41-7.1 366.91-7.85 366.91-9.15L366.91-9.15 366.91-27.05Q366.91-30.25 364.86-30.25L364.86-30.25Q362.81-30.25 362.81-27.05L362.81-27.05 362.81-9.15Q362.81-7.85 363.31-7.1 363.81-6.35 364.86-6.35L364.86-6.35Z" opacity="1" transform="matrix(1,0,0,1,0,0)" fill="#ff4136" class="wordmark-text-0" data-fill-palette-color="primary" id="text-0"></path></svg></g></svg></g><g transform="matrix(1,0,0,1,0,26.746986914450495)"><svg viewBox="0 0 178.04955476906397 12.31597071386505" height="12.31597071386505" width="178.04955476906397"><g transform="matrix(1,0,0,1,0,0)"><svg width="178.04955476906397" viewBox="1.9500000476837158 -40.849998474121094 727.7999877929688 50.349998474121094" height="12.31597071386505" data-palette-color="#492f2f"><path d="M12.7 0.45L12.7 0.45Q9.2 0.45 6.88-1.05 4.55-2.55 3.35-5.2 2.15-7.85 1.95-11.35L1.95-11.35 6.95-12.7Q7.1-10.55 7.63-8.55 8.15-6.55 9.35-5.28 10.55-4 12.7-4L12.7-4Q14.9-4 16.03-5.23 17.15-6.45 17.15-8.75L17.15-8.75Q17.15-11.5 15.9-13.18 14.65-14.85 12.75-16.55L12.75-16.55 5.95-22.55Q3.95-24.3 3-26.38 2.05-28.45 2.05-31.5L2.05-31.5Q2.05-35.95 4.6-38.4 7.15-40.85 11.55-40.85L11.55-40.85Q13.95-40.85 15.78-40.23 17.6-39.6 18.82-38.3 20.05-37 20.78-35.02 21.5-33.05 21.75-30.4L21.75-30.4 16.95-29.1Q16.8-31.1 16.35-32.77 15.9-34.45 14.78-35.48 13.65-36.5 11.55-36.5L11.55-36.5Q9.45-36.5 8.28-35.38 7.1-34.25 7.1-32.05L7.1-32.05Q7.1-30.2 7.73-29 8.35-27.8 9.75-26.55L9.75-26.55 16.6-20.55Q18.9-18.55 20.65-15.78 22.4-13 22.4-9.2L22.4-9.2Q22.4-6.2 21.15-4.03 19.9-1.85 17.73-0.7 15.55 0.45 12.7 0.45ZM34.35 0.4L34.35 0.4Q30.95 0.4 29.1-0.93 27.25-2.25 26.52-4.83 25.8-7.4 25.8-11.15L25.8-11.15 25.8-17.75Q25.8-21.6 26.55-24.15 27.3-26.7 29.17-28 31.05-29.3 34.35-29.3L34.35-29.3Q38-29.3 39.72-27.8 41.45-26.3 42-23.48 42.55-20.65 42.55-16.7L42.55-16.7 42.55-14.35 31.15-14.35 31.15-8.55Q31.15-6.8 31.47-5.7 31.8-4.6 32.52-4.08 33.25-3.55 34.4-3.55L34.4-3.55Q35.6-3.55 36.22-4.13 36.85-4.7 37.07-5.78 37.3-6.85 37.3-8.3L37.3-8.3 37.3-10.05 42.5-10.05 42.5-8.95Q42.5-4.6 40.65-2.1 38.8 0.4 34.35 0.4ZM31.15-18.8L31.15-17.25 37.3-17.25 37.3-19.85Q37.3-21.65 37.1-22.88 36.9-24.1 36.27-24.73 35.65-25.35 34.3-25.35L34.3-25.35Q33-25.35 32.32-24.75 31.65-24.15 31.4-22.73 31.15-21.3 31.15-18.8L31.15-18.8ZM52.6 0.4L52.6 0.4Q50.9 0.4 49.6-0.58 48.3-1.55 47.55-3.08 46.8-4.6 46.8-6.3L46.8-6.3Q46.8-9 47.7-10.85 48.6-12.7 50.17-13.98 51.75-15.25 53.82-16.2 55.9-17.15 58.2-18.05L58.2-18.05 58.2-20.1Q58.2-21.85 58-23 57.8-24.15 57.17-24.73 56.55-25.3 55.3-25.3L55.3-25.3Q54.2-25.3 53.52-24.8 52.85-24.3 52.55-23.38 52.25-22.45 52.25-21.2L52.25-21.2 52.25-19.75 46.95-19.95Q47.05-24.75 49.15-27.03 51.25-29.3 55.65-29.3L55.65-29.3Q59.95-29.3 61.75-26.95 63.55-24.6 63.55-20.15L63.55-20.15 63.55-6.95Q63.55-5.6 63.62-4.35 63.7-3.1 63.82-2.02 63.95-0.95 64.05 0L64.05 0 59.15 0Q59-0.8 58.77-2.02 58.55-3.25 58.45-4.25L58.45-4.25Q57.95-2.55 56.52-1.07 55.1 0.4 52.6 0.4ZM54.7-4.2L54.7-4.2Q55.5-4.2 56.2-4.65 56.9-5.1 57.45-5.68 58-6.25 58.2-6.6L58.2-6.6 58.2-14.8Q56.95-14.1 55.85-13.4 54.75-12.7 53.92-11.93 53.1-11.15 52.62-10.18 52.15-9.2 52.15-7.95L52.15-7.95Q52.15-6.2 52.8-5.2 53.45-4.2 54.7-4.2ZM73.64 0L68.69 0 68.69-28.9 73.64-28.9 73.64-26.15Q75.09-27.8 76.84-28.6 78.59-29.4 80.44-29.4L80.44-29.4Q82.04-29.4 83.32-28.6 84.59-27.8 85.14-25.75L85.14-25.75Q86.69-27.65 88.52-28.53 90.34-29.4 92.34-29.4L92.34-29.4Q93.74-29.4 94.89-28.73 96.04-28.05 96.74-26.58 97.44-25.1 97.44-22.7L97.44-22.7 97.44 0 92.54 0 92.54-22.35Q92.54-24.45 91.87-25.18 91.19-25.9 90.04-25.9L90.04-25.9Q88.94-25.9 87.74-25.28 86.54-24.65 85.54-23.55L85.54-23.55Q85.54-23.35 85.54-23.15 85.54-22.95 85.54-22.7L85.54-22.7 85.54 0 80.64 0 80.64-22.35Q80.64-24.45 79.97-25.18 79.29-25.9 78.14-25.9L78.14-25.9Q77.04-25.9 75.87-25.28 74.69-24.65 73.64-23.55L73.64-23.55 73.64 0ZM108.54 0L103.19 0 103.19-40.5 108.54-40.5 108.54 0ZM122.14 0.4L122.14 0.4Q118.74 0.4 116.89-0.93 115.04-2.25 114.31-4.83 113.59-7.4 113.59-11.15L113.59-11.15 113.59-17.75Q113.59-21.6 114.34-24.15 115.09-26.7 116.96-28 118.84-29.3 122.14-29.3L122.14-29.3Q125.79-29.3 127.51-27.8 129.24-26.3 129.79-23.48 130.34-20.65 130.34-16.7L130.34-16.7 130.34-14.35 118.94-14.35 118.94-8.55Q118.94-6.8 119.26-5.7 119.59-4.6 120.31-4.08 121.04-3.55 122.19-3.55L122.19-3.55Q123.39-3.55 124.01-4.13 124.64-4.7 124.86-5.78 125.09-6.85 125.09-8.3L125.09-8.3 125.09-10.05 130.29-10.05 130.29-8.95Q130.29-4.6 128.44-2.1 126.59 0.4 122.14 0.4ZM118.94-18.8L118.94-17.25 125.09-17.25 125.09-19.85Q125.09-21.65 124.89-22.88 124.69-24.1 124.06-24.73 123.44-25.35 122.09-25.35L122.09-25.35Q120.79-25.35 120.11-24.75 119.44-24.15 119.19-22.73 118.94-21.3 118.94-18.8L118.94-18.8ZM141.89 0.4L141.89 0.4Q138.34 0.4 136.19-1.83 134.04-4.05 133.74-7.7L133.74-7.7 138.19-9.05Q138.59-6.3 139.54-4.93 140.49-3.55 142.34-3.55L142.34-3.55Q143.79-3.55 144.54-4.38 145.29-5.2 145.29-6.6L145.29-6.6Q145.29-7.85 144.74-8.85 144.19-9.85 142.94-10.9L142.94-10.9 137.99-15.15Q136.49-16.45 135.46-18.05 134.44-19.65 134.44-22.2L134.44-22.2Q134.44-24.5 135.36-26.08 136.29-27.65 137.96-28.48 139.64-29.3 141.89-29.3L141.89-29.3Q145.34-29.3 147.16-27.08 148.99-24.85 149.24-21.7L149.24-21.7 145.64-20.35Q145.44-21.85 145.04-22.98 144.64-24.1 143.94-24.73 143.24-25.35 142.09-25.35L142.09-25.35Q140.79-25.35 140.01-24.48 139.24-23.6 139.24-22.4L139.24-22.4Q139.24-21.65 139.56-20.93 139.89-20.2 140.69-19.5L140.69-19.5 145.79-14.8Q146.84-13.85 147.76-12.75 148.69-11.65 149.29-10.25 149.89-8.85 149.89-7L149.89-7Q149.89-4.55 148.89-2.9 147.89-1.25 146.09-0.43 144.29 0.4 141.89 0.4ZM160.58 0.4L160.58 0.4Q157.03 0.4 154.88-1.83 152.73-4.05 152.43-7.7L152.43-7.7 156.88-9.05Q157.28-6.3 158.23-4.93 159.18-3.55 161.03-3.55L161.03-3.55Q162.48-3.55 163.23-4.38 163.98-5.2 163.98-6.6L163.98-6.6Q163.98-7.85 163.43-8.85 162.88-9.85 161.63-10.9L161.63-10.9 156.68-15.15Q155.18-16.45 154.16-18.05 153.13-19.65 153.13-22.2L153.13-22.2Q153.13-24.5 154.06-26.08 154.98-27.65 156.66-28.48 158.33-29.3 160.58-29.3L160.58-29.3Q164.03-29.3 165.86-27.08 167.68-24.85 167.93-21.7L167.93-21.7 164.33-20.35Q164.13-21.85 163.73-22.98 163.33-24.1 162.63-24.73 161.93-25.35 160.78-25.35L160.78-25.35Q159.48-25.35 158.71-24.48 157.93-23.6 157.93-22.4L157.93-22.4Q157.93-21.65 158.26-20.93 158.58-20.2 159.38-19.5L159.38-19.5 164.48-14.8Q165.53-13.85 166.46-12.75 167.38-11.65 167.98-10.25 168.58-8.85 168.58-7L168.58-7Q168.58-4.55 167.58-2.9 166.58-1.25 164.78-0.43 162.98 0.4 160.58 0.4ZM194.63 0.45L194.63 0.45Q190.33 0.45 187.95-1.35 185.58-3.15 184.65-6.2 183.73-9.25 183.73-13L183.73-13 183.73-27.3Q183.73-31.4 184.65-34.45 185.58-37.5 187.95-39.18 190.33-40.85 194.63-40.85L194.63-40.85Q198.43-40.85 200.65-39.45 202.88-38.05 203.85-35.45 204.83-32.85 204.83-29.2L204.83-29.2 204.83-26 199.48-26 199.48-28.85Q199.48-31.1 199.25-32.83 199.03-34.55 198.03-35.5 197.03-36.45 194.68-36.45L194.68-36.45Q192.28-36.45 191.18-35.43 190.08-34.4 189.75-32.52 189.43-30.65 189.43-28.15L189.43-28.15 189.43-12.1Q189.43-9.05 189.93-7.28 190.43-5.5 191.58-4.75 192.73-4 194.68-4L194.68-4Q196.98-4 197.98-5.03 198.98-6.05 199.23-7.85 199.48-9.65 199.48-12.05L199.48-12.05 199.48-15.05 204.83-15.05 204.83-12.05Q204.83-8.35 203.93-5.53 203.03-2.7 200.83-1.13 198.63 0.45 194.63 0.45ZM217.72 0.4L217.72 0.4Q214.52 0.4 212.67-0.9 210.82-2.2 210.05-4.6 209.27-7 209.27-10.25L209.27-10.25 209.27-18.65Q209.27-21.9 210.05-24.3 210.82-26.7 212.67-28 214.52-29.3 217.72-29.3L217.72-29.3Q220.92-29.3 222.75-28 224.57-26.7 225.35-24.3 226.13-21.9 226.13-18.65L226.13-18.65 226.13-10.25Q226.13-7 225.35-4.6 224.57-2.2 222.75-0.9 220.92 0.4 217.72 0.4ZM217.72-3.55L217.72-3.55Q219.27-3.55 219.9-4.45 220.52-5.35 220.65-6.83 220.77-8.3 220.77-9.9L220.77-9.9 220.77-18.95Q220.77-20.6 220.65-22.05 220.52-23.5 219.9-24.43 219.27-25.35 217.72-25.35L217.72-25.35Q216.17-25.35 215.52-24.43 214.88-23.5 214.75-22.05 214.63-20.6 214.63-18.95L214.63-18.95 214.63-9.9Q214.63-8.3 214.75-6.83 214.88-5.35 215.52-4.45 216.17-3.55 217.72-3.55ZM236.37 0L231.02 0 231.02-28.9 236.37-28.9 236.37-26.05Q237.82-27.4 239.57-28.35 241.32-29.3 243.42-29.3L243.42-29.3Q245.17-29.3 246.1-28.4 247.02-27.5 247.4-26.15 247.77-24.8 247.77-23.4L247.77-23.4 247.77 0 242.42 0 242.42-21.85Q242.42-23.4 241.97-24.25 241.52-25.1 240.12-25.1L240.12-25.1Q239.22-25.1 238.25-24.58 237.27-24.05 236.37-23.3L236.37-23.3 236.37 0ZM263.27 0L256.72 0 251.02-28.9 256.42-28.9 259.97-5.65 263.57-28.9 268.77-28.9 263.27 0ZM280.22 0.4L280.22 0.4Q276.82 0.4 274.97-0.93 273.12-2.25 272.39-4.83 271.67-7.4 271.67-11.15L271.67-11.15 271.67-17.75Q271.67-21.6 272.42-24.15 273.17-26.7 275.04-28 276.92-29.3 280.22-29.3L280.22-29.3Q283.87-29.3 285.59-27.8 287.32-26.3 287.87-23.48 288.42-20.65 288.42-16.7L288.42-16.7 288.42-14.35 277.02-14.35 277.02-8.55Q277.02-6.8 277.34-5.7 277.67-4.6 278.39-4.08 279.12-3.55 280.27-3.55L280.27-3.55Q281.47-3.55 282.09-4.13 282.72-4.7 282.94-5.78 283.17-6.85 283.17-8.3L283.17-8.3 283.17-10.05 288.37-10.05 288.37-8.95Q288.37-4.6 286.52-2.1 284.67 0.4 280.22 0.4ZM277.02-18.8L277.02-17.25 283.17-17.25 283.17-19.85Q283.17-21.65 282.97-22.88 282.77-24.1 282.14-24.73 281.52-25.35 280.17-25.35L280.17-25.35Q278.87-25.35 278.19-24.75 277.52-24.15 277.27-22.73 277.02-21.3 277.02-18.8L277.02-18.8ZM298.76 0L293.42 0 293.42-28.9 298.76-28.9 298.76-24.8Q300.37-27.45 301.96-28.35 303.56-29.25 305.17-29.25L305.17-29.25Q305.37-29.25 305.54-29.25 305.71-29.25 306.01-29.2L306.01-29.2 306.01-23.3Q305.42-23.55 304.64-23.73 303.87-23.9 303.06-23.9L303.06-23.9Q301.81-23.9 300.79-23.33 299.76-22.75 298.76-21.1L298.76-21.1 298.76 0ZM316.01 0.4L316.01 0.4Q312.46 0.4 310.31-1.83 308.16-4.05 307.86-7.7L307.86-7.7 312.31-9.05Q312.71-6.3 313.66-4.93 314.61-3.55 316.46-3.55L316.46-3.55Q317.91-3.55 318.66-4.38 319.41-5.2 319.41-6.6L319.41-6.6Q319.41-7.85 318.86-8.85 318.31-9.85 317.06-10.9L317.06-10.9 312.11-15.15Q310.61-16.45 309.59-18.05 308.56-19.65 308.56-22.2L308.56-22.2Q308.56-24.5 309.49-26.08 310.41-27.65 312.09-28.48 313.76-29.3 316.01-29.3L316.01-29.3Q319.46-29.3 321.29-27.08 323.11-24.85 323.36-21.7L323.36-21.7 319.76-20.35Q319.56-21.85 319.16-22.98 318.76-24.1 318.06-24.73 317.36-25.35 316.21-25.35L316.21-25.35Q314.91-25.35 314.14-24.48 313.36-23.6 313.36-22.4L313.36-22.4Q313.36-21.65 313.69-20.93 314.01-20.2 314.81-19.5L314.81-19.5 319.91-14.8Q320.96-13.85 321.89-12.75 322.81-11.65 323.41-10.25 324.01-8.85 324.01-7L324.01-7Q324.01-4.55 323.01-2.9 322.01-1.25 320.21-0.43 318.41 0.4 316.01 0.4ZM333.71 0L328.36 0 328.36-28.9 333.71-28.9 333.71 0ZM333.71-33.2L328.36-33.2 328.36-38.8 333.71-38.8 333.71-33.2ZM347.41 0.4L347.41 0.4Q344.21 0.4 342.36-0.9 340.51-2.2 339.73-4.6 338.96-7 338.96-10.25L338.96-10.25 338.96-18.65Q338.96-21.9 339.73-24.3 340.51-26.7 342.36-28 344.21-29.3 347.41-29.3L347.41-29.3Q350.61-29.3 352.43-28 354.26-26.7 355.03-24.3 355.81-21.9 355.81-18.65L355.81-18.65 355.81-10.25Q355.81-7 355.03-4.6 354.26-2.2 352.43-0.9 350.61 0.4 347.41 0.4ZM347.41-3.55L347.41-3.55Q348.96-3.55 349.58-4.45 350.21-5.35 350.33-6.83 350.46-8.3 350.46-9.9L350.46-9.9 350.46-18.95Q350.46-20.6 350.33-22.05 350.21-23.5 349.58-24.43 348.96-25.35 347.41-25.35L347.41-25.35Q345.86-25.35 345.21-24.43 344.56-23.5 344.43-22.05 344.31-20.6 344.31-18.95L344.31-18.95 344.31-9.9Q344.31-8.3 344.43-6.83 344.56-5.35 345.21-4.45 345.86-3.55 347.41-3.55ZM366.06 0L360.7 0 360.7-28.9 366.06-28.9 366.06-26.05Q367.5-27.4 369.25-28.35 371-29.3 373.11-29.3L373.11-29.3Q374.86-29.3 375.78-28.4 376.7-27.5 377.08-26.15 377.45-24.8 377.45-23.4L377.45-23.4 377.45 0 372.11 0 372.11-21.85Q372.11-23.4 371.65-24.25 371.2-25.1 369.81-25.1L369.81-25.1Q368.9-25.1 367.93-24.58 366.95-24.05 366.06-23.3L366.06-23.3 366.06 0ZM389.35 0.4L389.35 0.4Q385.8 0.4 383.65-1.83 381.5-4.05 381.2-7.7L381.2-7.7 385.65-9.05Q386.05-6.3 387-4.93 387.95-3.55 389.8-3.55L389.8-3.55Q391.25-3.55 392-4.38 392.75-5.2 392.75-6.6L392.75-6.6Q392.75-7.85 392.2-8.85 391.65-9.85 390.4-10.9L390.4-10.9 385.45-15.15Q383.95-16.45 382.93-18.05 381.9-19.65 381.9-22.2L381.9-22.2Q381.9-24.5 382.83-26.08 383.75-27.65 385.43-28.48 387.1-29.3 389.35-29.3L389.35-29.3Q392.8-29.3 394.63-27.08 396.45-24.85 396.7-21.7L396.7-21.7 393.1-20.35Q392.9-21.85 392.5-22.98 392.1-24.1 391.4-24.73 390.7-25.35 389.55-25.35L389.55-25.35Q388.25-25.35 387.48-24.48 386.7-23.6 386.7-22.4L386.7-22.4Q386.7-21.65 387.03-20.93 387.35-20.2 388.15-19.5L388.15-19.5 393.25-14.8Q394.3-13.85 395.23-12.75 396.15-11.65 396.75-10.25 397.35-8.85 397.35-7L397.35-7Q397.35-4.55 396.35-2.9 395.35-1.25 393.55-0.43 391.75 0.4 389.35 0.4ZM418 0.4L418 0.4Q416.3 0.4 415-0.58 413.7-1.55 412.95-3.08 412.2-4.6 412.2-6.3L412.2-6.3Q412.2-9 413.1-10.85 414-12.7 415.57-13.98 417.15-15.25 419.22-16.2 421.3-17.15 423.6-18.05L423.6-18.05 423.6-20.1Q423.6-21.85 423.4-23 423.2-24.15 422.57-24.73 421.95-25.3 420.7-25.3L420.7-25.3Q419.6-25.3 418.92-24.8 418.25-24.3 417.95-23.38 417.65-22.45 417.65-21.2L417.65-21.2 417.65-19.75 412.35-19.95Q412.45-24.75 414.55-27.03 416.65-29.3 421.05-29.3L421.05-29.3Q425.35-29.3 427.15-26.95 428.95-24.6 428.95-20.15L428.95-20.15 428.95-6.95Q428.95-5.6 429.02-4.35 429.1-3.1 429.22-2.02 429.35-0.95 429.45 0L429.45 0 424.55 0Q424.4-0.8 424.17-2.02 423.95-3.25 423.85-4.25L423.85-4.25Q423.35-2.55 421.92-1.07 420.5 0.4 418 0.4ZM420.1-4.2L420.1-4.2Q420.9-4.2 421.6-4.65 422.3-5.1 422.85-5.68 423.4-6.25 423.6-6.6L423.6-6.6 423.6-14.8Q422.35-14.1 421.25-13.4 420.15-12.7 419.32-11.93 418.5-11.15 418.02-10.18 417.55-9.2 417.55-7.95L417.55-7.95Q417.55-6.2 418.2-5.2 418.85-4.2 420.1-4.2ZM441.39 0.4L441.39 0.4Q439.14 0.4 437.77-0.45 436.39-1.3 435.77-2.85 435.14-4.4 435.14-6.5L435.14-6.5 435.14-25.35 432.1-25.35 432.1-28.9 435.14-28.9 435.14-37.35 440.5-37.35 440.5-28.9 445.14-28.9 445.14-25.35 440.5-25.35 440.5-6.85Q440.5-5.15 441.05-4.42 441.6-3.7 443.14-3.7L443.14-3.7Q443.55-3.7 444.07-3.75 444.6-3.8 445.1-3.85L445.1-3.85 445.1 0.1Q444.1 0.25 443.25 0.33 442.39 0.4 441.39 0.4ZM472.59 0L467.19 0 467.19-14.3 458.44-40.5 463.69-40.5 469.89-20.95 475.99-40.5 481.29-40.5 472.59-14.3 472.59 0ZM491.54 0.4L491.54 0.4Q488.34 0.4 486.49-0.9 484.64-2.2 483.86-4.6 483.09-7 483.09-10.25L483.09-10.25 483.09-18.65Q483.09-21.9 483.86-24.3 484.64-26.7 486.49-28 488.34-29.3 491.54-29.3L491.54-29.3Q494.74-29.3 496.56-28 498.39-26.7 499.16-24.3 499.94-21.9 499.94-18.65L499.94-18.65 499.94-10.25Q499.94-7 499.16-4.6 498.39-2.2 496.56-0.9 494.74 0.4 491.54 0.4ZM491.54-3.55L491.54-3.55Q493.09-3.55 493.71-4.45 494.34-5.35 494.46-6.83 494.59-8.3 494.59-9.9L494.59-9.9 494.59-18.95Q494.59-20.6 494.46-22.05 494.34-23.5 493.71-24.43 493.09-25.35 491.54-25.35L491.54-25.35Q489.99-25.35 489.34-24.43 488.69-23.5 488.56-22.05 488.44-20.6 488.44-18.95L488.44-18.95 488.44-9.9Q488.44-8.3 488.56-6.83 488.69-5.35 489.34-4.45 489.99-3.55 491.54-3.55ZM508.99 0.4L508.99 0.4Q507.28 0.4 506.33-0.5 505.38-1.4 505.01-2.75 504.63-4.1 504.63-5.5L504.63-5.5 504.63-28.9 509.99-28.9 509.99-7.1Q509.99-5.55 510.44-4.67 510.88-3.8 512.28-3.8L512.28-3.8Q513.18-3.8 514.16-4.33 515.13-4.85 516.03-5.6L516.03-5.6 516.03-28.9 521.38-28.9 521.38 0 516.03 0 516.03-2.85Q514.63-1.5 512.86-0.55 511.08 0.4 508.99 0.4ZM532.33 0L526.98 0 526.98-28.9 532.33-28.9 532.33-24.8Q533.93-27.45 535.53-28.35 537.13-29.25 538.73-29.25L538.73-29.25Q538.93-29.25 539.11-29.25 539.28-29.25 539.58-29.2L539.58-29.2 539.58-23.3Q538.98-23.55 538.21-23.73 537.43-23.9 536.63-23.9L536.63-23.9Q535.38-23.9 534.36-23.33 533.33-22.75 532.33-21.1L532.33-21.1 532.33 0ZM560.43 0L554.78 0 554.78-40.5 570.43-40.5 570.43-36.45 560.43-36.45 560.43-22.95 568.18-22.95 568.18-18.95 560.43-18.95 560.43 0ZM579.57 0L574.22 0 574.22-28.9 579.57-28.9 579.57 0ZM579.57-33.2L574.22-33.2 574.22-38.8 579.57-38.8 579.57-33.2ZM590.67 0L585.32 0 585.32-28.9 590.67-28.9 590.67-26.05Q592.12-27.4 593.87-28.35 595.62-29.3 597.72-29.3L597.72-29.3Q599.47-29.3 600.4-28.4 601.32-27.5 601.7-26.15 602.07-24.8 602.07-23.4L602.07-23.4 602.07 0 596.72 0 596.72-21.85Q596.72-23.4 596.27-24.25 595.82-25.1 594.42-25.1L594.42-25.1Q593.52-25.1 592.55-24.58 591.57-24.05 590.67-23.3L590.67-23.3 590.67 0ZM614.77 8.95L614.77 8.95Q612.17 8.95 610.07 8.4 607.97 7.85 606.77 6.65 605.57 5.45 605.57 3.5L605.57 3.5Q605.57 2.1 606.17 1.05 606.77 0 607.72-0.78 608.67-1.55 609.72-2.05L609.72-2.05Q608.32-2.45 607.62-3.33 606.92-4.2 606.92-5.15L606.92-5.15Q606.92-6.75 607.77-7.9 608.62-9.05 610.12-10.4L610.12-10.4Q608.47-11.65 607.62-13.6 606.77-15.55 606.77-19L606.77-19Q606.77-22.4 607.69-24.68 608.62-26.95 610.44-28.13 612.27-29.3 614.92-29.3L614.92-29.3Q617.27-29.3 618.69-28.5 620.12-27.7 620.87-26.1L620.87-26.1Q621.12-26.5 622.22-27.48 623.32-28.45 624.77-29.1L624.77-29.1 625.57-29.45 626.92-26Q626.27-25.9 625.19-25.53 624.12-25.15 623.19-24.78 622.27-24.4 622.02-24.15L622.02-24.15Q622.37-23.3 622.64-21.7 622.92-20.1 622.92-18.85L622.92-18.85Q622.92-15.9 622.17-13.65 621.42-11.4 619.69-10.13 617.97-8.85 614.92-8.85L614.92-8.85Q614.27-8.85 613.52-8.95 612.77-9.05 612.17-9.2L612.17-9.2Q611.87-8.75 611.54-8.15 611.22-7.55 611.22-7L611.22-7Q611.22-6.45 611.79-6.13 612.37-5.8 613.62-5.7L613.62-5.7 618.12-5.3Q621.52-5 623.17-3.25 624.82-1.5 624.82 1.75L624.82 1.75Q624.82 4.1 623.72 5.73 622.62 7.35 620.39 8.15 618.17 8.95 614.77 8.95ZM615.17 4.75L615.17 4.75Q618.02 4.75 619.37 4.08 620.72 3.4 620.72 1.9L620.72 1.9Q620.72 1 620.39 0.4 620.07-0.2 619.22-0.55 618.37-0.9 616.77-1.05L616.77-1.05 612.22-1.45Q611.67-0.9 611.17-0.35 610.67 0.2 610.37 0.83 610.07 1.45 610.07 2.15L610.07 2.15Q610.07 3.45 611.17 4.1 612.27 4.75 615.17 4.75ZM614.92-12.6L614.92-12.6Q616.07-12.6 616.74-13.03 617.42-13.45 617.77-14.28 618.12-15.1 618.24-16.3 618.37-17.5 618.37-19L618.37-19Q618.37-20.5 618.24-21.73 618.12-22.95 617.79-23.83 617.47-24.7 616.79-25.15 616.12-25.6 614.97-25.6L614.97-25.6Q613.87-25.6 613.14-25.15 612.42-24.7 612.07-23.88 611.72-23.05 611.57-21.83 611.42-20.6 611.42-19L611.42-19Q611.42-17.65 611.54-16.48 611.67-15.3 612.04-14.45 612.42-13.6 613.12-13.1 613.82-12.6 614.92-12.6ZM636.82 0.4L636.82 0.4Q633.42 0.4 631.57-0.93 629.72-2.25 628.99-4.83 628.27-7.4 628.27-11.15L628.27-11.15 628.27-17.75Q628.27-21.6 629.02-24.15 629.77-26.7 631.64-28 633.52-29.3 636.82-29.3L636.82-29.3Q640.47-29.3 642.19-27.8 643.92-26.3 644.47-23.48 645.02-20.65 645.02-16.7L645.02-16.7 645.02-14.35 633.62-14.35 633.62-8.55Q633.62-6.8 633.94-5.7 634.27-4.6 634.99-4.08 635.72-3.55 636.87-3.55L636.87-3.55Q638.07-3.55 638.69-4.13 639.32-4.7 639.54-5.78 639.77-6.85 639.77-8.3L639.77-8.3 639.77-10.05 644.97-10.05 644.97-8.95Q644.97-4.6 643.12-2.1 641.27 0.4 636.82 0.4ZM633.62-18.8L633.62-17.25 639.77-17.25 639.77-19.85Q639.77-21.65 639.57-22.88 639.37-24.1 638.74-24.73 638.12-25.35 636.77-25.35L636.77-25.35Q635.47-25.35 634.79-24.75 634.12-24.15 633.87-22.73 633.62-21.3 633.62-18.8L633.62-18.8ZM655.36 0L650.01 0 650.01-28.9 655.36-28.9 655.36-24.8Q656.96-27.45 658.56-28.35 660.16-29.25 661.76-29.25L661.76-29.25Q661.96-29.25 662.14-29.25 662.31-29.25 662.61-29.2L662.61-29.2 662.61-23.3Q662.01-23.55 661.24-23.73 660.46-23.9 659.66-23.9L659.66-23.9Q658.41-23.9 657.39-23.33 656.36-22.75 655.36-21.1L655.36-21.1 655.36 0ZM673.61 0.4L673.61 0.4Q671.36 0.4 669.99-0.45 668.61-1.3 667.99-2.85 667.36-4.4 667.36-6.5L667.36-6.5 667.36-25.35 664.31-25.35 664.31-28.9 667.36-28.9 667.36-37.35 672.71-37.35 672.71-28.9 677.36-28.9 677.36-25.35 672.71-25.35 672.71-6.85Q672.71-5.15 673.26-4.42 673.81-3.7 675.36-3.7L675.36-3.7Q675.76-3.7 676.29-3.75 676.81-3.8 677.31-3.85L677.31-3.85 677.31 0.1Q676.31 0.25 675.46 0.33 674.61 0.4 673.61 0.4ZM687.01 0L681.66 0 681.66-28.9 687.01-28.9 687.01 0ZM687.01-33.2L681.66-33.2 681.66-38.8 687.01-38.8 687.01-33.2ZM698.11 9.5L692.76 9.5 692.76-28.9 698.11-28.9 698.11-26.6Q699.06-27.7 700.41-28.5 701.76-29.3 703.61-29.3L703.61-29.3Q705.86-29.3 707.18-28.13 708.51-26.95 709.16-25.18 709.81-23.4 710.01-21.58 710.21-19.75 710.21-18.45L710.21-18.45 710.21-11.45Q710.21-8.4 709.61-5.68 709.01-2.95 707.43-1.28 705.86 0.4 703.01 0.4L703.01 0.4Q701.46 0.4 700.26-0.38 699.06-1.15 698.11-2.15L698.11-2.15 698.11 9.5ZM701.96-3.8L701.96-3.8Q703.36-3.8 703.96-4.83 704.56-5.85 704.71-7.6 704.86-9.35 704.86-11.45L704.86-11.45 704.86-18.45Q704.86-20.25 704.66-21.78 704.46-23.3 703.81-24.2 703.16-25.1 701.76-25.1L701.76-25.1Q700.71-25.1 699.76-24.65 698.81-24.2 698.11-23.6L698.11-23.6 698.11-5.1Q698.86-4.55 699.81-4.17 700.76-3.8 701.96-3.8ZM721.75 0.4L721.75 0.4Q718.2 0.4 716.05-1.83 713.9-4.05 713.6-7.7L713.6-7.7 718.05-9.05Q718.45-6.3 719.4-4.93 720.35-3.55 722.2-3.55L722.2-3.55Q723.65-3.55 724.4-4.38 725.15-5.2 725.15-6.6L725.15-6.6Q725.15-7.85 724.6-8.85 724.05-9.85 722.8-10.9L722.8-10.9 717.85-15.15Q716.35-16.45 715.33-18.05 714.3-19.65 714.3-22.2L714.3-22.2Q714.3-24.5 715.23-26.08 716.15-27.65 717.83-28.48 719.5-29.3 721.75-29.3L721.75-29.3Q725.2-29.3 727.03-27.08 728.85-24.85 729.1-21.7L729.1-21.7 725.5-20.35Q725.3-21.85 724.9-22.98 724.5-24.1 723.8-24.73 723.1-25.35 721.95-25.35L721.95-25.35Q720.65-25.35 719.88-24.48 719.1-23.6 719.1-22.4L719.1-22.4Q719.1-21.65 719.43-20.93 719.75-20.2 720.55-19.5L720.55-19.5 725.65-14.8Q726.7-13.85 727.63-12.75 728.55-11.65 729.15-10.25 729.75-8.85 729.75-7L729.75-7Q729.75-4.55 728.75-2.9 727.75-1.25 725.95-0.43 724.15 0.4 721.75 0.4Z" opacity="1" transform="matrix(1,0,0,1,0,0)" fill="#492f2f" class="slogan-text-1" data-fill-palette-color="secondary" id="text-1"></path></svg></g></svg></g></svg></g></svg></g><g transform="matrix(1,0,0,1,60.26910316926391,0)"><svg viewBox="0 0 71.46179366147219 53.98500744233209" height="53.98500744233209" width="71.46179366147219"><g><svg xmlns="http://www.w3.org/2000/svg" xmlns:xlink="http://www.w3.org/1999/xlink" version="1.1" x="0" y="0" viewBox="0.5 15.999999046325684 127.07846069335938 95.99999237060547" enable-background="new 0 0 128 128" xml:space="preserve" height="53.98500744233209" width="71.46179366147219" class="icon-icon-0" data-fill-palette-color="accent" id="icon-0"><g fill="#ffffff" data-fill-palette-color="accent"><path d="M19.4 30.1c0.4 0 0.8-0.3 0.8-0.8V16.8c0-0.4-0.3-0.8-0.8-0.8-0.4 0-0.8 0.3-0.8 0.8v12.6C18.7 29.7 19 30.1 19.4 30.1z" fill="#ffffff" data-fill-palette-color="accent"></path><path d="M19.4 38.3c0.4 0 0.8-0.3 0.8-0.8v-4.1c0-0.4-0.3-0.8-0.8-0.8-0.4 0-0.8 0.3-0.8 0.8v4.1C18.7 37.9 19 38.3 19.4 38.3z" fill="#ffffff" data-fill-palette-color="accent"></path><path d="M121.8 84.9c-0.4 0-0.8 0.3-0.8 0.8v12.6c0 0.4 0.3 0.8 0.8 0.8 0.4 0 0.8-0.3 0.8-0.8V85.7C122.6 85.3 122.2 84.9 121.8 84.9z" fill="#ffffff" data-fill-palette-color="accent"></path><path d="M121.8 101.6c-0.4 0-0.8 0.3-0.8 0.8v4.1c0 0.4 0.3 0.8 0.8 0.8 0.4 0 0.8-0.3 0.8-0.8v-4.1C122.6 102 122.2 101.6 121.8 101.6z" fill="#ffffff" data-fill-palette-color="accent"></path><path d="M5.6 26.9c0.1 0.1 0.3 0.2 0.5 0.2 0.2 0 0.4-0.1 0.5-0.2 0.3-0.3 0.3-0.8 0-1.1l-1.3-1.3c-0.3-0.3-0.8-0.3-1.1 0-0.3 0.3-0.3 0.8 0 1.1L5.6 26.9z" fill="#ffffff" data-fill-palette-color="accent"></path><path d="M9.9 31.2c0.1 0.1 0.3 0.2 0.5 0.2 0.2 0 0.4-0.1 0.5-0.2 0.3-0.3 0.3-0.8 0-1.1l-1.3-1.3c-0.3-0.3-0.8-0.3-1.1 0-0.3 0.3-0.3 0.8 0 1.1L9.9 31.2z" fill="#ffffff" data-fill-palette-color="accent"></path><path d="M4.8 31.4c0.2 0 0.4-0.1 0.5-0.2l1.3-1.3c0.3-0.3 0.3-0.8 0-1.1-0.3-0.3-0.8-0.3-1.1 0l-1.3 1.3c-0.3 0.3-0.3 0.8 0 1.1C4.4 31.3 4.6 31.4 4.8 31.4z" fill="#ffffff" data-fill-palette-color="accent"></path><path d="M9.1 27.1c0.2 0 0.4-0.1 0.5-0.2l1.3-1.3c0.3-0.3 0.3-0.8 0-1.1-0.3-0.3-0.8-0.3-1.1 0l-1.3 1.3c-0.3 0.3-0.3 0.8 0 1.1C8.7 27.1 8.9 27.1 9.1 27.1z" fill="#ffffff" data-fill-palette-color="accent"></path><path d="M100.1 105c-0.3-0.3-0.8-0.3-1.1 0-0.3 0.3-0.3 0.8 0 1.1l1.3 1.3c0.1 0.1 0.3 0.2 0.5 0.2 0.2 0 0.4-0.1 0.5-0.2 0.3-0.3 0.3-0.8 0-1.1L100.1 105z" fill="#ffffff" data-fill-palette-color="accent"></path><path d="M104.4 109.2c-0.3-0.3-0.8-0.3-1.1 0-0.3 0.3-0.3 0.8 0 1.1l1.3 1.3c0.1 0.1 0.3 0.2 0.5 0.2 0.2 0 0.4-0.1 0.5-0.2 0.3-0.3 0.3-0.8 0-1.1L104.4 109.2z" fill="#ffffff" data-fill-palette-color="accent"></path><path d="M100.4 109.2l-1.3 1.3c-0.3 0.3-0.3 0.8 0 1.1 0.1 0.1 0.3 0.2 0.5 0.2s0.4-0.1 0.5-0.2l1.3-1.3c0.3-0.3 0.3-0.8 0-1.1C101.2 108.9 100.7 108.9 100.4 109.2z" fill="#ffffff" data-fill-palette-color="accent"></path><path d="M104.7 105l-1.3 1.3c-0.3 0.3-0.3 0.8 0 1.1 0.1 0.1 0.3 0.2 0.5 0.2 0.2 0 0.4-0.1 0.5-0.2l1.3-1.3c0.3-0.3 0.3-0.8 0-1.1C105.4 104.7 104.9 104.7 104.7 105z" fill="#ffffff" data-fill-palette-color="accent"></path><path d="M122 49.6c0.1 0.1 0.3 0.2 0.5 0.2 0.2 0 0.4-0.1 0.5-0.2 0.3-0.3 0.3-0.8 0-1.1l-1.3-1.3c-0.3-0.3-0.8-0.3-1.1 0-0.3 0.3-0.3 0.8 0 1.1L122 49.6z" fill="#ffffff" data-fill-palette-color="accent"></path><path d="M126 51.5c-0.3-0.3-0.8-0.3-1.1 0-0.3 0.3-0.3 0.8 0 1.1l1.3 1.3c0.1 0.1 0.3 0.2 0.5 0.2 0.2 0 0.4-0.1 0.5-0.2 0.3-0.3 0.3-0.8 0-1.1L126 51.5z" fill="#ffffff" data-fill-palette-color="accent"></path><path d="M121.2 54.1c0.2 0 0.4-0.1 0.5-0.2l1.3-1.3c0.3-0.3 0.3-0.8 0-1.1-0.3-0.3-0.8-0.3-1.1 0l-1.3 1.3c-0.3 0.3-0.3 0.8 0 1.1C120.8 54 121 54.1 121.2 54.1z" fill="#ffffff" data-fill-palette-color="accent"></path><path d="M125.4 49.9c0.2 0 0.4-0.1 0.5-0.2l1.3-1.3c0.3-0.3 0.3-0.8 0-1.1-0.3-0.3-0.8-0.3-1.1 0l-1.3 1.3c-0.3 0.3-0.3 0.8 0 1.1C125 49.8 125.2 49.9 125.4 49.9z" fill="#ffffff" data-fill-palette-color="accent"></path><path d="M50.3 25.4c2 0 3.7-1.7 3.7-3.7s-1.7-3.7-3.7-3.7c-2 0-3.7 1.7-3.7 3.7S48.3 25.4 50.3 25.4zM50.3 19.6c1.2 0 2.2 1 2.2 2.2s-1 2.2-2.2 2.2-2.2-1-2.2-2.2S49.1 19.6 50.3 19.6z" fill="#ffffff" data-fill-palette-color="accent"></path><path d="M68 104.6c-2 0-3.7 1.7-3.7 3.7 0 2 1.7 3.7 3.7 3.7 2 0 3.7-1.7 3.7-3.7C71.7 106.3 70 104.6 68 104.6zM68 110.5c-1.2 0-2.2-1-2.2-2.2 0-1.2 1-2.2 2.2-2.2 1.2 0 2.2 1 2.2 2.2C70.2 109.5 69.2 110.5 68 110.5z" fill="#ffffff" data-fill-palette-color="accent"></path><path d="M74.9 20.6h13.6c0.4 0 0.8-0.3 0.8-0.8 0-0.4-0.3-0.8-0.8-0.8H74.9c-0.4 0-0.8 0.3-0.8 0.8C74.1 20.3 74.5 20.6 74.9 20.6z" fill="#ffffff" data-fill-palette-color="accent"></path><path d="M92.9 20.6h4.4c0.4 0 0.8-0.3 0.8-0.8 0-0.4-0.3-0.8-0.8-0.8h-4.4c-0.4 0-0.8 0.3-0.8 0.8C92.2 20.3 92.5 20.6 92.9 20.6z" fill="#ffffff" data-fill-palette-color="accent"></path><path d="M97.3 23.8h-9.5c-0.4 0-0.8 0.3-0.8 0.8 0 0.4 0.3 0.8 0.8 0.8h9.5c0.4 0 0.8-0.3 0.8-0.8C98.1 24.1 97.8 23.8 97.3 23.8z" fill="#ffffff" data-fill-palette-color="accent"></path><path d="M80.7 23.8c-0.4 0-0.8 0.3-0.8 0.8 0 0.4 0.3 0.8 0.8 0.8h3.1c0.4 0 0.8-0.3 0.8-0.8 0-0.4-0.3-0.8-0.8-0.8H80.7z" fill="#ffffff" data-fill-palette-color="accent"></path><path d="M18.7 103.6c0-0.4-0.3-0.8-0.8-0.8H4.3c-0.4 0-0.8 0.3-0.8 0.8 0 0.4 0.3 0.8 0.8 0.8h13.6C18.3 104.4 18.7 104 18.7 103.6z" fill="#ffffff" data-fill-palette-color="accent"></path><path d="M26.8 102.9h-4.4c-0.4 0-0.8 0.3-0.8 0.8 0 0.4 0.3 0.8 0.8 0.8h4.4c0.4 0 0.8-0.3 0.8-0.8C27.5 103.2 27.2 102.9 26.8 102.9z" fill="#ffffff" data-fill-palette-color="accent"></path><path d="M26.8 107.5h-9.5c-0.4 0-0.8 0.3-0.8 0.8 0 0.4 0.3 0.8 0.8 0.8h9.5c0.4 0 0.8-0.3 0.8-0.8C27.5 107.9 27.2 107.5 26.8 107.5z" fill="#ffffff" data-fill-palette-color="accent"></path><path d="M13.2 107.5h-3.1c-0.4 0-0.8 0.3-0.8 0.8 0 0.4 0.3 0.8 0.8 0.8h3.1c0.4 0 0.8-0.3 0.8-0.8C14 107.9 13.7 107.5 13.2 107.5z" fill="#ffffff" data-fill-palette-color="accent"></path><path d="M29.3 43.4h71.5c0 0 0.1 0 0.1 0 0.1 0 0.1 0 0.2 0 0.1 0 0.2 0 0.3-0.1l9.2-4.1c0.3-0.1 0.4-0.4 0.4-0.7s-0.2-0.6-0.4-0.7l-9.2-4.1c-0.1-0.1-0.3-0.1-0.5 0 0 0-0.1 0-0.1 0H41.6c0 0 0 0 0 0 0 0 0 0 0 0h-3.8c0 0 0 0 0 0 0 0 0 0 0 0H34c0 0 0 0 0 0 0 0 0 0 0 0h-4.6c-2.7 0-4.8 2.2-4.8 4.8C24.5 41.2 26.6 43.4 29.3 43.4zM37 41.9h-2.3v-6.7H37V41.9zM38.5 35.2h2.3v6.7h-2.3V35.2zM101.5 41.6v-6.1l6.8 3.1L101.5 41.6zM100 41.9H42.4v-6.7H100V41.9zM29.3 35.2h3.9v6.7h-3.9c-1.8 0-3.3-1.5-3.3-3.3C26 36.7 27.5 35.2 29.3 35.2z" fill="#ffffff" data-fill-palette-color="accent"></path><path d="M48.5 39.3h47.8c0.4 0 0.8-0.3 0.8-0.8 0-0.4-0.3-0.8-0.8-0.8H48.5c-0.4 0-0.8 0.3-0.8 0.8C47.8 39 48.1 39.3 48.5 39.3z" fill="#ffffff" data-fill-palette-color="accent"></path><path d="M33.8 58.5c-0.6 0-1.2 0.2-1.6 0.7-0.4 0.4-0.7 1-0.7 1.6 0 0.4 0.3 0.8 0.8 0.8 0.4 0 0.8-0.3 0.8-0.8 0-0.2 0.1-0.4 0.2-0.6 0.2-0.2 0.4-0.2 0.6-0.2 0.4 0 0.8-0.3 0.8-0.8C34.5 58.8 34.2 58.5 33.8 58.5z" fill="#ffffff" data-fill-palette-color="accent"></path><path d="M84.3 58.5c-0.4 0-0.8 0.3-0.8 0.8 0 0.4 0.3 0.8 0.8 0.8 0.2 0 0.4 0.1 0.6 0.2 0.2 0.2 0.2 0.4 0.2 0.6 0 0.4 0.3 0.8 0.8 0.8 0.4 0 0.8-0.3 0.8-0.8 0-0.6-0.2-1.2-0.7-1.6C85.5 58.7 84.9 58.5 84.3 58.5z" fill="#ffffff" data-fill-palette-color="accent"></path><path d="M85.9 84.3c-0.4 0-0.8 0.3-0.8 0.8 0 0.2-0.1 0.4-0.2 0.6-0.2 0.2-0.4 0.2-0.6 0.2-0.4 0-0.8 0.3-0.8 0.8 0 0.4 0.3 0.8 0.8 0.8 0.6 0 1.2-0.2 1.6-0.7 0.4-0.4 0.7-1 0.7-1.6C86.6 84.7 86.3 84.3 85.9 84.3z" fill="#ffffff" data-fill-palette-color="accent"></path><path d="M107.6 54.6H97.2c-0.4 0-0.8 0.3-0.8 0.8v3.3c0 0.4 0.3 0.8 0.8 0.8h10.5c0.4 0 0.8-0.3 0.8-0.8v-3.3C108.4 54.9 108 54.6 107.6 54.6zM106.9 57.9h-9v-1.8h9V57.9z" fill="#ffffff" data-fill-palette-color="accent"></path><path d="M107.6 60.9H97.2c-0.4 0-0.8 0.3-0.8 0.8v3.3c0 0.4 0.3 0.8 0.8 0.8h10.5c0.4 0 0.8-0.3 0.8-0.8v-3.3C108.4 61.2 108 60.9 107.6 60.9zM106.9 64.2h-9v-1.8h9V64.2z" fill="#ffffff" data-fill-palette-color="accent"></path><path d="M107.6 80.2H97.2c-0.4 0-0.8 0.3-0.8 0.8v3.3c0 0.4 0.3 0.8 0.8 0.8h10.5c0.4 0 0.8-0.3 0.8-0.8v-3.3C108.4 80.5 108 80.2 107.6 80.2zM106.9 83.5h-9v-1.8h9V83.5z" fill="#ffffff" data-fill-palette-color="accent"></path><path d="M107.6 86.5H97.2c-0.4 0-0.8 0.3-0.8 0.8v3.3c0 0.4 0.3 0.8 0.8 0.8h10.5c0.4 0 0.8-0.3 0.8-0.8v-3.3C108.4 86.8 108 86.5 107.6 86.5zM106.9 89.8h-9V88h9V89.8z" fill="#ffffff" data-fill-palette-color="accent"></path><path d="M107.4 72.9c0-2.8-2.2-5-5-5-2.8 0-5 2.2-5 5 0 2.8 2.2 5 5 5C105.2 77.9 107.4 75.7 107.4 72.9zM98.9 72.9c0-1.9 1.6-3.5 3.5-3.5 1.9 0 3.5 1.6 3.5 3.5 0 1.9-1.6 3.5-3.5 3.5C100.5 76.4 98.9 74.9 98.9 72.9z" fill="#ffffff" data-fill-palette-color="accent"></path><path d="M7.3 57.7c-0.3 0.1-0.4 0.4-0.4 0.7v32.6c0 0.4 0.3 0.8 0.8 0.8h37.9c0.3 0 0.6-0.2 0.7-0.5 0.1-0.3 0-0.6-0.2-0.8L8.1 57.9C7.9 57.7 7.6 57.6 7.3 57.7zM8.4 60.1l35.1 30.2H8.4V60.1z" fill="#ffffff" data-fill-palette-color="accent"></path><path d="M126.9 68.4c-1.1-2.6-2.2-5.3-4.7-5.3-2.5 0-3.6 2.7-4.7 5.3-0.8 1.9-1.5 3.6-2.6 4.2V50.3c0-1.8-1.5-3.2-3.2-3.2H24.4c-1.8 0-3.2 1.4-3.2 3.2v10.3L1.7 43.7c-0.2-0.2-0.5-0.2-0.8-0.1-0.3 0.1-0.4 0.4-0.4 0.7v10.1c0 0 0 0 0 0 0 0 0 0 0 0v3.8c0 0 0 0 0 0 0 0 0 0 0 0v4c0 0 0 0 0 0 0 0 0 0 0 0v3.8c0 0 0 0 0 0 0 0 0 0 0 0V70c0 0 0 0 0 0 0 0 0 0 0 0v3.8c0 0 0 0 0 0s0 0 0 0v3.8c0 0 0 0 0 0 0 0 0 0 0 0v3.8c0 0 0 0 0 0 0 0 0 0 0 0v3.8c0 0 0 0 0 0 0 0 0 0 0 0v3.8c0 0 0 0 0 0 0 0 0 0 0 0v3.8c0 0 0 0 0 0 0 0 0 0 0 0v4.9c0 0.4 0.3 0.8 0.8 0.8h61.7 0.3 48.4c1.8 0 3.2-1.4 3.2-3.2V74.2c2-0.5 3-2.9 4-5.2 0.9-2.3 1.8-4.4 3.3-4.4 1.5 0 2.4 2.1 3.3 4.4 0.2 0.5 0.4 0.9 0.6 1.4 0.2 0.4 0.6 0.6 1 0.4 0.4-0.2 0.6-0.6 0.4-1C127.2 69.3 127.1 68.8 126.9 68.4zM55 97.3V95c0-0.4-0.3-0.8-0.8-0.8s-0.8 0.3-0.8 0.8v2.3h-2.5v-1.2c0-0.4-0.3-0.8-0.8-0.8-0.4 0-0.8 0.3-0.8 0.8v1.2h-2.4V95c0-0.4-0.3-0.8-0.8-0.8-0.4 0-0.8 0.3-0.8 0.8v2.3h-2.4v-1.2c0-0.4-0.3-0.8-0.8-0.8-0.4 0-0.8 0.3-0.8 0.8v1.2h-2.4V95c0-0.4-0.3-0.8-0.8-0.8-0.4 0-0.8 0.3-0.8 0.8v2.3h-2.4v-1.2c0-0.4-0.3-0.8-0.8-0.8-0.4 0-0.8 0.3-0.8 0.8v1.2h-2.4V95c0-0.4-0.3-0.8-0.8-0.8-0.4 0-0.8 0.3-0.8 0.8v2.3h-2.4v-1.2c0-0.4-0.3-0.8-0.8-0.8-0.4 0-0.8 0.3-0.8 0.8v1.2H24V95c0-0.4-0.3-0.8-0.8-0.8-0.4 0-0.8 0.3-0.8 0.8v2.3h-2.4v-1.2c0-0.4-0.3-0.8-0.8-0.8-0.4 0-0.8 0.3-0.8 0.8v1.2h-2.4V95c0-0.4-0.3-0.8-0.8-0.8s-0.8 0.3-0.8 0.8v2.3h-2.5v-1.2c0-0.4-0.3-0.8-0.8-0.8-0.4 0-0.8 0.3-0.8 0.8v1.2H8.5V95c0-0.4-0.3-0.8-0.8-0.8S7 94.6 7 95v2.3H2v-3.4h2.2c0.4 0 0.8-0.3 0.8-0.8s-0.3-0.8-0.8-0.8H2v-2.4h1.1c0.4 0 0.8-0.3 0.8-0.8 0-0.4-0.3-0.8-0.8-0.8H2v-2.4h2.2c0.4 0 0.8-0.3 0.8-0.8 0-0.4-0.3-0.8-0.8-0.8H2v-2.4h1.1c0.4 0 0.8-0.3 0.8-0.8 0-0.4-0.3-0.8-0.8-0.8H2v-2.4h2.2c0.4 0 0.8-0.3 0.8-0.8C5 77.3 4.6 77 4.2 77H2v-2.4h1.1c0.4 0 0.8-0.3 0.8-0.8 0-0.4-0.3-0.8-0.8-0.8H2v-2.4h2.2C4.6 70.8 5 70.4 5 70c0-0.4-0.3-0.8-0.8-0.8H2v-2.4h1.1c0.4 0 0.8-0.3 0.8-0.8 0-0.4-0.3-0.8-0.8-0.8H2V63h2.2C4.6 63 5 62.7 5 62.3c0-0.4-0.3-0.8-0.8-0.8H2v-2.5h1.1c0.4 0 0.8-0.3 0.8-0.8 0-0.4-0.3-0.8-0.8-0.8H2v-2.4h2.2c0.4 0 0.8-0.3 0.8-0.8 0-0.4-0.3-0.8-0.8-0.8H2V46l19.2 16.6v0l40 34.7H55zM113.3 95.6c0 0.9-0.8 1.7-1.7 1.7H63.5l-4.1-3.5-2.9-2.5h30.6c1.8 0 3.2-1.4 3.2-3.2V57.8c0-1.8-1.4-3.2-3.2-3.2H31c-1.8 0-3.2 1.4-3.2 3.2v8.5l-5.1-4.4V50.3c0-0.9 0.8-1.7 1.7-1.7h87.2c1 0 1.7 0.8 1.7 1.7V95.6zM29.3 67.6v-9.8c0-0.9 0.8-1.7 1.7-1.7h56.1c0.9 0 1.7 0.8 1.7 1.7v30.3c0 0.9-0.8 1.7-1.7 1.7H54.8L29.3 67.6z" fill="#ffffff" data-fill-palette-color="accent"></path></g></svg></g></svg></g><g></g></svg></g></svg></g></svg></g></svg></g><defs></defs></svg>
        <rect width="320" height="360" fill="none" stroke="none" visibility="hidden">
        </rect>
        </g>
</svg>
